<svg xmlns="http://www.w3.org/2000/svg" width="740" height="539"><rect width="100%" height="100%" fill="#0a0a0f"/><polygon points="233.7,159.3 290.8,130.1 356.1,98.7 460.1,51.0 494.0,37.3 514.7,30.8 534.0,26.1 571.8,20.2 606.8,19.0 620.1,20.5 642.4,26.0 657.4,32.0 663.4,35.7 674.5,45.3 686.0,58.4 692.9,70.0 698.8,83.0 706.9,107.1 711.6,126.4 718.7,209.4 720.0,237.4 713.6,369.1 712.0,385.7 708.2,397.3 702.9,405.5 698.7,409.9 686.7,417.7 680.4,419.6 666.5,420.3 659.4,418.9 650.5,414.8 643.8,409.5 636.1,400.2 632.3,388.5 631.1,380.2 624.1,234.0 601.6,176.0 593.4,159.2 585.3,149.8 574.1,143.2 561.8,140.2 545.5,142.0 429.7,173.3 408.6,179.4 392.1,186.1 343.4,210.2 268.8,250.7 237.7,269.8 220.7,283.5 207.8,299.1 198.1,315.9 192.7,330.1 189.8,346.0 190.1,392.5 189.1,415.5 187.0,425.7 182.7,438.2 177.6,449.1 168.0,465.0 157.1,480.6 144.1,495.6 130.5,507.4 115.8,515.7 100.3,519.0 84.5,518.0 66.6,510.5 46.2,493.3 32.3,470.2 24.4,451.9 20.2,429.7 20.0,413.3 24.4,377.3 34.9,342.6 59.4,293.8 67.9,281.5 84.7,260.7 110.1,235.9 127.5,222.9 173.6,192.0 208.1,172.3" fill="none" stroke="#e63946" stroke-width="3"/><polyline points="20.0,413.3 37.0,368.4 50.1,341.8 65.2,316.9 70.0,312.2 85.7,308.7 90.0,306.8 92.3,304.4 96.3,297.3 99.1,279.3 101.8,271.9 117.7,252.0 135.6,237.1 180.7,205.8 235.7,175.3 343.4,122.4 372.3,107.1 379.9,104.3 392.5,104.8 401.2,101.8 453.4,68.8 482.2,52.8 513.3,37.2 548.0,23.5" fill="none" stroke="#999" stroke-width="1.5" stroke-dasharray="4 3"/><circle cx="233.66353543979517" cy="159.32589936849405" r="6" fill="#fff"/><line x1="233.66353543979517" y1="159.32589936849405" x2="494.03928266439124" y2="37.337573222865785" stroke="#0f0" stroke-width="3"/><text x="24" y="513" fill="#aaa" font-size="14">brandshatch_indy — 1927 m (exp 1944.0)</text></svg>