<svg xmlns="http://www.w3.org/2000/svg" width="740" height="873"><rect width="100%" height="100%" fill="#0a0a0f"/><polygon points="141.4,262.7 137.8,267.4 128.7,280.7 124.6,287.4 121.3,294.4 110.1,314.7 104.2,326.8 98.6,341.8 89.1,371.9 79.9,401.9 70.6,435.4 60.2,480.3 30.0,599.2 24.2,628.4 22.2,644.8 20.3,665.3 20.0,674.4 20.1,684.5 21.1,701.6 22.0,709.0 26.4,727.5 30.2,738.8 34.3,749.2 39.2,758.5 46.3,769.9 53.9,781.0 61.0,789.7 69.7,799.3 78.8,808.0 88.9,816.5 98.5,823.3 108.3,829.2 122.4,836.6 131.4,840.4 142.4,844.2 155.4,848.0 169.9,850.9 181.6,852.5 194.6,853.0 207.3,852.5 220.0,851.1 232.4,848.8 244.4,845.8 259.3,840.8 274.1,834.2 286.9,827.1 295.4,821.6 304.0,815.2 312.4,808.1 331.7,789.2 343.6,775.5 355.9,759.3 417.3,675.2 635.8,372.8 678.4,314.7 690.3,295.1 703.3,271.1 712.3,245.7 715.5,233.1 718.8,216.0 719.5,209.6 720.0,190.3 719.3,177.9 717.4,164.7 714.8,153.7 709.9,136.4 705.8,126.3 700.2,115.0 692.5,101.8 685.0,90.5 677.4,80.5 668.3,70.5 660.2,63.3 649.3,54.6 636.9,46.0 626.6,39.9 607.9,31.2 595.5,27.0 584.8,24.1 571.7,21.5 559.9,20.0 542.8,19.4 530.7,20.0 513.4,22.6 495.5,27.0 475.2,34.1 457.2,41.8 446.7,47.3 409.0,68.6 244.8,172.5 229.2,182.8 215.1,192.9 203.6,200.0 183.9,216.3 168.2,231.4 157.6,242.8 146.9,255.4" fill="none" stroke="#e63946" stroke-width="3"/><polyline points="286.1,146.3 280.6,150.9 264.1,168.0 256.1,177.3 247.9,188.0 85.9,411.5 81.5,420.5 70.6,435.4" fill="none" stroke="#999" stroke-width="1.5" stroke-dasharray="4 3"/><circle cx="141.39054686250952" cy="262.68542866212897" r="6" fill="#fff"/><line x1="141.39054686250952" y1="262.68542866212897" x2="121.34699145038743" y2="294.4387650476484" stroke="#0f0" stroke-width="3"/><text x="24" y="847" fill="#aaa" font-size="14">daytona_oval — 4018 m (exp 4023)</text></svg>