<svg xmlns="http://www.w3.org/2000/svg" width="740" height="1379"><rect width="100%" height="100%" fill="#0a0a0f"/><polygon points="596.4,431.4 597.8,437.6 627.2,528.4 630.9,550.3 630.2,570.4 626.4,584.8 618.8,599.1 601.0,612.2 574.7,626.5 494.1,677.2 379.4,742.6 350.6,751.9 281.4,765.3 262.4,771.2 245.6,778.3 225.9,793.7 213.0,811.3 206.3,828.4 205.2,840.5 205.8,855.4 210.7,874.6 220.2,895.5 341.4,1096.2 388.3,1183.9 417.8,1234.4 437.6,1266.1 452.9,1282.6 467.7,1293.7 490.4,1303.6 522.8,1310.3 551.4,1312.7 574.9,1311.9 598.6,1308.5 672.9,1287.7 687.9,1285.7 702.6,1289.5 712.3,1297.5 717.3,1303.6 720.0,1312.9 719.9,1320.9 715.1,1334.9 709.1,1342.4 701.8,1347.3 693.0,1351.6 672.9,1355.1 621.7,1358.6 579.9,1359.0 538.4,1356.5 505.4,1348.7 483.5,1339.0 452.1,1318.4 409.7,1282.6 399.3,1279.3 378.3,1277.7 372.1,1274.6 368.1,1267.5 360.9,1229.5 354.8,1215.0 99.2,882.2 98.0,875.2 99.2,868.4 107.6,846.4 108.6,837.1 105.6,827.6 99.7,820.9 37.1,780.4 28.8,774.2 21.9,765.8 20.0,755.7 20.9,739.8 24.4,724.3 60.2,615.1 71.8,592.3 84.8,563.2 94.4,539.6 98.9,519.0 102.2,490.9 109.3,393.0 111.2,350.4 110.8,330.4 107.0,311.9 95.2,278.0 86.8,247.2 77.9,200.6 78.9,185.9 82.8,173.9 110.0,131.2 122.9,120.3 137.5,113.7 159.1,108.1 223.9,97.8 254.1,91.4 406.0,49.5 534.4,21.1 552.2,20.0 567.1,27.5 574.8,38.9 578.8,53.8 579.1,76.6 573.7,129.9 571.1,148.0 560.3,191.7 557.8,216.0 559.1,243.3 573.6,333.3" fill="none" stroke="#e63946" stroke-width="3"/><polyline points="560.3,191.7 548.4,223.9 544.0,265.6 544.0,277.8 558.9,330.6 604.2,497.9 612.8,527.0 614.7,539.6 614.1,552.2 610.6,566.6 603.8,579.8 567.0,620.2 536.1,650.9" fill="none" stroke="#999" stroke-width="1.5" stroke-dasharray="4 3"/><circle cx="596.3747089378534" cy="431.4496032382025" r="6" fill="#fff"/><line x1="596.3747089378534" y1="431.4496032382025" x2="630.1647859573679" y2="570.3520532720923" stroke="#0f0" stroke-width="3"/><text x="24" y="1353" fill="#aaa" font-size="14">oulton_international — 4317 m (exp 4332)</text></svg>