<svg xmlns="http://www.w3.org/2000/svg" width="740" height="855"><rect width="100%" height="100%" fill="#0a0a0f"/><polygon points="215.3,569.6 165.8,601.9 157.2,609.3 149.0,617.9 143.7,624.9 142.3,628.7 141.6,633.3 142.0,640.3 142.9,645.0 147.8,658.6 150.5,664.0 159.5,677.2 176.4,699.9 219.4,760.4 223.3,768.7 228.1,784.1 228.8,791.8 228.0,800.5 225.9,807.2 219.9,815.0 216.6,817.8 212.4,820.5 202.7,825.0 191.5,828.2 159.2,833.9 143.2,835.0 132.1,833.9 126.0,832.5 120.3,830.7 114.1,827.9 103.3,821.8 94.6,815.0 85.7,805.9 77.0,793.8 25.2,698.5 21.9,689.2 20.2,679.1 20.0,673.6 20.3,668.8 22.5,659.9 25.7,652.0 30.9,643.7 36.6,637.5 44.8,631.1 108.9,587.0 153.8,556.7 258.2,484.7 323.6,442.3 328.0,438.4 329.9,436.0 330.7,434.0 330.3,431.7 325.7,421.5 326.1,417.1 357.3,367.9 371.2,344.4 403.3,282.5 410.9,264.6 413.6,255.0 415.5,246.0 416.4,236.2 417.0,218.8 415.8,208.9 413.7,199.4 408.4,181.1 397.1,146.9 388.5,125.7 388.1,123.1 388.1,120.0 388.7,117.8 391.0,115.5 399.8,110.0 402.5,106.9 403.4,103.3 402.6,98.1 396.1,85.7 393.4,77.6 393.4,70.4 394.3,66.8 395.4,63.4 397.2,60.5 399.7,57.6 444.0,24.9 449.3,22.5 455.5,20.9 462.4,19.8 468.6,19.5 479.9,21.1 487.9,23.8 493.8,26.7 502.8,33.8 557.2,81.6 566.5,89.0 576.9,96.0 585.8,101.1 594.2,105.1 637.4,122.7 711.9,151.8 714.6,153.6 716.5,155.7 719.2,160.1 720.0,163.0 719.9,166.8 717.9,171.2 715.4,174.1 688.0,192.2 680.2,198.8 675.5,204.4 662.4,223.0 656.3,229.1 444.9,372.3 442.2,376.5 441.5,379.7 443.6,387.0 450.4,397.6 451.3,401.4 451.6,405.3 451.3,408.8 449.7,412.5 447.5,416.9 442.8,422.7 325.1,497.9" fill="none" stroke="#e63946" stroke-width="3"/><polyline points="444.9,372.3 400.4,402.7 398.5,405.4 398.5,408.3 401.8,428.7 401.1,434.6 398.4,439.3 388.8,447.5 382.1,452.3 339.9,479.3 334.7,485.4 304.9,504.9 301.0,505.0 279.3,518.9 276.2,521.7 175.6,586.7 152.1,601.4 140.7,606.5 102.8,631.1 97.9,635.3 93.6,641.1 91.7,645.8 90.5,652.0 90.0,657.3 90.8,664.3 93.0,671.7 95.3,677.0 99.6,682.7 107.7,690.0 125.7,701.4 197.0,739.8 202.7,743.1 212.3,750.2" fill="none" stroke="#999" stroke-width="1.5" stroke-dasharray="4 3"/><circle cx="215.26133695785526" cy="569.5851928484739" r="6" fill="#fff"/><line x1="215.26133695785526" y1="569.5851928484739" x2="143.68713703197307" y2="624.8942582786474" stroke="#0f0" stroke-width="3"/><text x="24" y="829" fill="#aaa" font-size="14">zolder_gp — 4001 m (exp 4011.0)</text></svg>